<svg width="25" height="25" viewBox="0 0 25 25" fill="none" xmlns="http://www.w3.org/2000/svg">
<g id="uil:raindrops-alt">
<path id="Vector" d="M9.15026 8.44051C9.15026 5.67322 6.55403 3.90215 6.44334 3.83171C6.27693 3.71923 6.08067 3.65912 5.87982 3.65912C5.67896 3.65912 5.4827 3.71923 5.31629 3.83171C5.2056 3.91221 2.60938 5.67322 2.60938 8.44051C2.60938 9.30789 2.95394 10.1397 3.56726 10.7531C4.18059 11.3664 5.01244 11.711 5.87982 11.711C6.74719 11.711 7.57904 11.3664 8.19237 10.7531C8.80569 10.1397 9.15026 9.30789 9.15026 8.44051ZM5.87982 9.69837C5.54621 9.69837 5.22627 9.56585 4.99037 9.32996C4.75448 9.09406 4.62195 8.77412 4.62195 8.44051C4.70476 7.48643 5.15594 6.60212 5.87982 5.9751C6.60801 6.59872 7.06015 7.48492 7.13768 8.44051C7.13768 8.77412 7.00515 9.09406 6.76926 9.32996C6.53336 9.56585 6.21342 9.69837 5.87982 9.69837ZM11.9779 10.8757C11.8115 10.7633 11.6153 10.7031 11.4144 10.7031C11.2136 10.7031 11.0173 10.7633 10.8509 10.8757C10.6798 10.9965 6.63453 13.794 6.63453 18.0003C6.63453 19.268 7.13812 20.4837 8.03453 21.3801C8.93093 22.2765 10.1467 22.7801 11.4144 22.7801C12.6821 22.7801 13.8979 22.2765 14.7943 21.3801C15.6907 20.4837 16.1943 19.268 16.1943 18.0003C16.1943 13.7235 12.1691 10.9864 11.9779 10.8757ZM11.4144 20.7676C11.051 20.7676 10.6912 20.696 10.3554 20.5569C10.0197 20.4178 9.7146 20.214 9.45763 19.957C9.20067 19.7001 8.99683 19.395 8.85776 19.0593C8.71869 18.7235 8.64711 18.3637 8.64711 18.0003C8.64711 15.6757 10.4685 13.804 11.4245 12.9688C12.3704 13.7638 14.1817 15.6154 14.1817 18.0003C14.1817 18.3637 14.1101 18.7235 13.9711 19.0593C13.832 19.395 13.6281 19.7001 13.3712 19.957C13.1142 20.214 12.8091 20.4178 12.4734 20.5569C12.1377 20.696 11.7778 20.7676 11.4144 20.7676ZM18.2672 2.82542C18.1008 2.71294 17.9046 2.65283 17.7037 2.65283C17.5029 2.65283 17.3066 2.71294 17.1402 2.82542C16.9993 2.92605 13.6786 5.22039 13.6786 8.69208C13.6786 9.75962 14.1026 10.7834 14.8575 11.5383C15.6124 12.2932 16.6362 12.7172 17.7037 12.7172C18.7713 12.7172 19.7951 12.2932 20.5499 11.5383C21.3048 10.7834 21.7289 9.75962 21.7289 8.69208C21.7289 5.18014 18.4081 2.91598 18.2672 2.82542ZM17.7037 10.7047C17.1699 10.7047 16.658 10.4926 16.2806 10.1152C15.9032 9.73776 15.6911 9.22585 15.6911 8.69208C15.7601 7.96546 15.9737 7.25997 16.3193 6.6171C16.6649 5.97423 17.1356 5.40697 17.7037 4.94869C18.2739 5.40502 18.7461 5.9718 19.0919 6.61505C19.4378 7.2583 19.6501 7.96477 19.7163 8.69208C19.7163 9.22585 19.5043 9.73776 19.1268 10.1152C18.7494 10.4926 18.2375 10.7047 17.7037 10.7047Z" fill="black"/>
</g>
</svg>
